# xmcd
#
# Track frame offsets: 
#        150
#        15285
#        34853
#        53231
#        68694
#        83911
#        99149
#        115019
#        133951
#        150065
#        167221
#        186301
#        196425
#        210693
#        226927
#        246637
#        267734
#        279574
#        292815
#        308353
#        329873
#        344988
#
# Disc length: 4785 seconds
#
# Revision: 0
# Processed by: cddbd v1.5.2PL0 Copyright (c) Steve Scherf et al.
# Submitted via: ExactAudioCopy v0.95b4
#
DISCID=4412af16
DTITLE=Евгений Кемеровский (Яковлев) - Русский шансон
DYEAR=2004
DGENRE=Chanson
TTITLE0=А люди говорят
TTITLE1=Золотая пора
TTITLE2=Еще не осень
TTITLE3=Давай на посошок
TTITLE4=Над сибирской тайгой
TTITLE5=Милая
TTITLE6=Мария
TTITLE7=Малина
TTITLE8=Лиха беда начало
TTITLE9=Русская рулетка
TTITLE10=Не вспоминай меня
TTITLE11=Роща Марьина
TTITLE12=Старый двор
TTITLE13=Ночное море
TTITLE14=Уходя оглянись
TTITLE15=Я буду ждать тебя
TTITLE16=Чаек
TTITLE17=Хозяин
TTITLE18=Столыпинский вагон
TTITLE19=Я уже не люблю
TTITLE20=Я к тебе никогда не вернусь
TTITLE21=Я вернусь
EXTD=
EXTT0=
EXTT1=
EXTT2=
EXTT3=
EXTT4=
EXTT5=
EXTT6=
EXTT7=
EXTT8=
EXTT9=
EXTT10=
EXTT11=
EXTT12=
EXTT13=
EXTT14=
EXTT15=
EXTT16=
EXTT17=
EXTT18=
EXTT19=
EXTT20=
EXTT21=
PLAYORDER=
